<mxfile host="app.diagrams.net" modified="2023-06-12T22:26:06.221Z" agent="Mozilla/5.0 (X11; Linux x86_64) AppleWebKit/537.36 (KHTML, like Gecko) Chrome/114.0.0.0 Safari/537.36" version="21.3.8" etag="VYW-4_Z90D9V7Qmbxg7v" type="github">
  <diagram name="PÃ¡gina-1" id="33kpY4JfHE6_1HMsWRyC">
    <mxGraphModel>
      <root>
        <mxCell id="0" />
        <mxCell id="1" parent="0" />
      </root>
    </mxGraphModel>
  </diagram>
</mxfile>
